Red Hot Chili Peppers
August 22nd 2011
The Roxy, West Hollywood, California

Source: TV > VideoRedo > 1080i.ts

Captured and Edited by: DeeSeven

Setlist:

Unknown Song
Unknown Song
Unknown Song
Unknown Song
Unknown Song
Unknown Song
Unknown Song


Uploader Notes:

I don't know the setlist, except they played the "never heard before, first time ever played" song "Give it away" (Flea and his jokes). This isn't the full concert so don't hurt your fingertips. You can make this a dvd or whatever you want I don't care just no selling, please keep all files when you share elsewhere and remember to credit Me please.

Techy Stuff

Format                           : MPEG-TS
Format/Info                      : Audio Coding 3
File size                        : 4.80 GiB
Duration                         : 41mn 35s
Overall bit rate                 : 16.5 Mbps

Video
ID                               : 224 (0xE0)
Menu ID                          : 1 (0x1)
Format                           : MPEG Video
Format version                   : Version 2
Format profile                   : Main@High
Format settings, BVOP            : Yes
Format settings, Matrix          : Default
Codec ID                         : 2
Duration                         : 41mn 35s
Bit rate mode                    : Variable
Bit rate                         : 15.3 Mbps
Nominal bit rate                 : 80.0 Mbps
Width                            : 1 920 pixels
Height                           : 1 080 pixels
Display aspect ratio             : 16:9
Frame rate                       : 29.970 fps
Color space                      : YUV
Chroma subsampling               : 4:2:0
Bit depth                        : 8 bits
Scan type                        : Interlaced
Scan order                       : Top Field First
Compression mode                 : Lossy
Bits/(Pixel*Frame)               : 0.247
Stream size                      : 4.45 GiB (93%)

Audio
ID                               : 128 (0x80)
Menu ID                          : 1 (0x1)
Format                           : AC-3
Format/Info                      : Audio Coding 3
Mode extension                   : CM (complete main)
Codec ID                         : 129
Duration                         : 41mn 35s
Bit rate mode                    : Constant
Bit rate                         : 384 Kbps
Channel(s)                       : 2 channels
Channel positions                : Front: L R
Sampling rate                    : 48.0 KHz
Bit depth                        : 16 bits
Compression mode                 : Lossy
Stream size                      : 114 MiB (2%)
Language                         : English

Text
ID                               : 224 (0xE0)608-1
Menu ID                          : 1 (0x1)
Format                           : EIA-608
Muxing mode                      : A/53 / DTVCC Transport
Muxing mode, more info           : Muxed in Video #1
Duration                         : 41mn 35s
Stream size                      : 0.00 Byte (0%)

--------------------------------------------------------------------------------------

Checksum

8cd72a14da9438b14c769e29f0c145dc *Red Hot Chili Peppers - Aug 22nd 2011 - 1080i.ts

No errors occured.



